<?xml version="1.0" standalone="no"?>
<!DOCTYPE svg PUBLIC "-//W3C//DTD SVG 20010904//EN"
 "http://www.w3.org/TR/2001/REC-SVG-20010904/DTD/svg10.dtd">
<svg version="1.0" xmlns="http://www.w3.org/2000/svg"
 width="619.000000pt" height="619.000000pt" viewBox="0 0 619.000000 619.000000"
 preserveAspectRatio="xMidYMid meet">
<metadata>
Created by potrace 1.14, written by Peter Selinger 2001-2017
</metadata>
<g transform="translate(0.000000,619.000000) scale(0.100000,-0.100000)"
fill="#000000" stroke="none">
<path d="M4520 4066 c-94 -27 -151 -64 -264 -173 -219 -209 -282 -259 -414
-326 -48 -24 -114 -52 -147 -61 -33 -10 -71 -21 -85 -25 -34 -10 -36 -42 -6
-88 43 -65 68 -150 73 -253 4 -80 2 -105 -17 -160 -12 -36 -28 -72 -35 -80
-15 -18 -45 -76 -45 -87 0 -12 587 -15 595 -3 3 5 -8 36 -24 68 -78 155 -88
528 -20 748 44 142 169 236 229 172 22 -23 22 -30 4 -115 -6 -31 -6 -32 41
-38 190 -29 404 144 382 308 -8 56 -35 89 -93 109 -58 20 -112 21 -174 4z"/>
<path d="M204 4058 c-7 -11 -1 -67 7 -63 13 9 42 -77 58 -170 26 -156 31 -216
31 -380 0 -268 -32 -492 -81 -571 -10 -17 -19 -41 -19 -53 l0 -21 558 0 c421
0 561 3 570 12 7 7 12 27 12 46 0 18 10 77 22 130 l23 97 6 -53 c22 -173 215
-276 457 -242 48 7 105 22 127 33 55 27 126 83 146 113 l17 26 27 -36 c54 -71
165 -111 334 -120 l93 -5 -5 27 c-3 15 -15 60 -26 101 -15 54 -24 127 -31 274
-10 199 -11 200 -46 273 -41 87 -109 153 -205 202 -172 87 -499 88 -669 2 -83
-42 -105 -70 -105 -135 0 -46 4 -58 30 -85 52 -55 189 -76 317 -49 101 22 132
54 91 95 -12 12 -19 38 -21 83 -3 56 -1 69 18 89 12 13 33 22 50 22 54 0 86
-54 106 -179 14 -89 19 -243 7 -254 -3 -4 -20 4 -37 17 -85 64 -167 88 -297
88 -160 -1 -259 -42 -329 -137 -22 -30 -44 -54 -48 -54 -21 4 -35 -5 -74 -48
-66 -72 -112 -113 -126 -113 -7 0 -15 -7 -18 -15 -7 -17 -133 -101 -146 -98
-4 2 -8 -2 -8 -9 0 -6 -3 -8 -6 -5 -4 3 -18 -2 -31 -13 -46 -36 -123 -38 -157
-4 -18 17 -22 39 -6 29 6 -4 1 10 -10 31 -29 50 -37 99 -55 314 -20 249 -5
496 41 649 9 33 19 49 26 45 7 -4 8 -3 4 5 -9 13 2 53 13 47 4 -3 8 11 9 30 2
22 -2 34 -10 34 -7 0 -152 1 -321 3 -170 1 -311 -1 -313 -5z m1817 -793 c99
-52 129 -205 61 -312 -49 -76 -119 -107 -199 -89 -24 6 -40 20 -65 59 -32 50
-33 56 -33 153 0 94 2 103 27 136 54 71 134 91 209 53z"/>
<path d="M2610 4050 c0 -6 11 -32 24 -59 65 -128 98 -443 77 -732 -14 -192
-35 -299 -75 -381 -26 -54 -30 -68 -19 -73 24 -8 641 -6 647 3 3 5 -5 29 -19
53 -13 25 -30 69 -39 99 -20 71 -46 283 -46 378 l0 75 43 -7 c52 -8 133 -49
129 -65 -1 -7 2 -10 7 -7 5 4 13 0 18 -7 4 -8 18 -19 30 -25 30 -16 33 -3 33
149 0 119 -1 129 -18 129 -11 0 -38 -18 -61 -41 -26 -26 -47 -39 -57 -35 -8 3
-12 2 -9 -4 6 -10 -56 -30 -94 -30 l-24 0 6 118 c10 175 47 369 80 410 6 7 16
11 24 8 8 -3 11 -1 8 4 -11 18 30 10 82 -15 27 -14 76 -49 108 -78 70 -63 186
-197 180 -207 -2 -4 7 -12 22 -19 29 -13 44 -2 37 28 -2 9 -17 85 -34 169 -16
84 -32 157 -35 162 -9 14 -1025 14 -1025 0z"/>
<path d="M5533 3726 c-23 -8 -57 -23 -76 -35 -35 -21 -35 -21 -30 -1 13 49
-52 29 -347 -107 -52 -25 -128 -58 -168 -75 -41 -17 -76 -37 -79 -45 -3 -9 5
-38 19 -67 65 -130 89 -334 69 -576 -11 -131 -37 -241 -67 -285 -8 -11 -14
-30 -14 -42 l0 -23 290 0 c321 0 318 -1 281 61 -12 19 -28 65 -36 104 -15 71
-36 267 -29 274 2 2 14 -9 26 -24 13 -16 25 -31 28 -34 75 -87 297 -84 442 5
45 29 125 125 149 182 29 67 49 166 49 241 0 206 -86 364 -236 432 -54 25 -76
29 -146 28 -46 0 -102 -6 -125 -13z m69 -56 c84 -66 125 -303 95 -545 -31
-245 -98 -333 -212 -279 -46 22 -77 59 -104 129 -34 83 -42 334 -16 452 43
195 154 309 237 243z"/>
<path d="M4728 3679 c-60 -41 -213 -120 -282 -146 -23 -8 -79 -25 -126 -38
-83 -22 -85 -23 -82 -51 2 -15 15 -44 28 -63 39 -57 67 -163 67 -255 1 -94
-19 -170 -63 -239 -55 -87 -70 -82 265 -84 293 -3 295 -2 295 18 0 12 -8 33
-19 47 -51 73 -80 292 -62 485 10 115 44 266 69 314 35 64 -8 70 -90 12z"/>
<path d="M1660 2589 c0 -6 -25 -71 -55 -143 -35 -84 -65 -139 -81 -152 -37
-30 -23 -44 47 -44 61 0 75 11 42 35 -14 11 -16 18 -8 42 10 26 14 28 69 28
56 0 60 -1 69 -29 8 -23 6 -31 -7 -38 -9 -5 -16 -16 -16 -23 0 -12 17 -15 85
-15 94 0 107 11 61 53 -13 12 -40 63 -59 112 -71 180 -74 185 -112 185 -19 0
-35 -5 -35 -11z m46 -184 c-2 -7 -19 -10 -40 -7 l-35 4 15 37 c9 20 18 42 22
50 7 17 45 -66 38 -84z"/>
<path d="M2000 2545 c0 -48 2 -55 20 -55 13 0 20 7 20 19 0 27 27 51 56 51
l24 0 0 -128 c0 -132 -6 -152 -42 -152 -11 0 -15 -5 -12 -15 8 -20 194 -22
194 -2 0 7 -10 17 -22 22 -22 10 -23 16 -26 143 -3 132 -3 132 20 132 31 0 45
-11 57 -43 6 -15 18 -27 26 -27 13 0 15 10 13 53 l-3 52 -162 3 -163 2 0 -55z"/>
<path d="M2480 2587 c0 -7 10 -17 23 -22 21 -10 22 -15 22 -140 0 -125 -1
-130 -22 -140 -13 -5 -23 -15 -23 -22 0 -18 299 -19 304 0 3 6 7 31 10 55 6
37 4 42 -14 42 -11 0 -20 -6 -20 -14 0 -27 -50 -56 -96 -56 l-44 0 0 61 0 60
43 -3 c35 -2 43 -7 45 -25 2 -13 9 -23 17 -23 9 0 14 19 17 65 2 55 0 65 -13
65 -9 0 -19 -9 -22 -20 -4 -16 -14 -20 -46 -20 l-41 0 0 56 0 55 48 -3 c30 -2
46 -7 45 -15 -2 -7 3 -10 11 -7 9 3 17 -3 21 -15 3 -12 14 -21 23 -21 14 0 16
8 14 50 l-4 50 -149 0 c-113 0 -149 -3 -149 -13z"/>
<path d="M2955 2589 c-4 -6 -5 -11 -4 -12 45 -24 44 -18 47 -155 l3 -131 -26
-7 c-14 -3 -25 -12 -25 -20 0 -11 29 -14 155 -14 l155 0 0 29 c0 16 3 43 6 60
6 27 4 31 -15 31 -12 0 -21 -6 -21 -15 0 -31 -47 -65 -89 -65 -51 0 -53 7 -49
155 3 103 4 111 26 120 12 5 22 15 22 22 0 17 -175 18 -185 2z"/>
<path d="M3420 2587 c0 -7 10 -17 23 -22 21 -10 22 -15 22 -140 0 -125 -1
-130 -22 -140 -13 -5 -23 -15 -23 -22 0 -10 24 -13 90 -13 71 0 90 3 90 14 0
8 -9 18 -20 21 -19 6 -20 15 -20 142 0 126 1 135 20 140 11 3 20 12 20 19 0
11 -20 14 -90 14 -66 0 -90 -3 -90 -13z"/>
<path d="M3760 2585 c0 -8 9 -15 20 -15 27 0 31 -25 28 -160 -3 -108 -4 -116
-25 -125 -13 -5 -23 -15 -23 -22 0 -10 37 -13 155 -13 l155 0 0 24 c0 13 3 38
6 55 6 27 4 31 -15 31 -11 0 -21 -6 -21 -14 0 -27 -50 -56 -96 -56 l-44 0 0
60 c0 60 0 60 29 60 42 0 61 -10 61 -31 0 -10 6 -19 14 -19 11 0 15 17 18 65
2 55 0 65 -13 65 -9 0 -19 -9 -22 -20 -4 -16 -14 -20 -46 -20 l-41 0 0 55 0
55 45 0 c44 0 85 -24 85 -50 0 -5 10 -10 21 -10 17 0 20 4 15 23 -3 12 -6 34
-6 50 l0 27 -150 0 c-127 0 -150 -2 -150 -15z"/>
<path d="M4240 2586 c0 -8 9 -18 20 -21 19 -6 20 -15 20 -140 0 -125 -1 -134
-20 -140 -11 -3 -20 -13 -20 -21 0 -11 19 -14 90 -14 66 0 90 3 90 13 0 7 -10
17 -22 22 -19 8 -24 19 -26 63 -2 38 1 52 10 52 12 0 72 -89 90 -132 6 -15 20
-18 73 -18 68 0 87 15 43 35 -12 6 -37 30 -55 55 -18 25 -39 51 -47 59 -13 12
-10 16 17 31 41 22 58 79 36 118 -21 38 -68 51 -191 51 -87 1 -108 -2 -108
-13z m210 -45 c26 -49 -3 -101 -57 -101 -21 0 -23 4 -23 60 l0 60 35 0 c24 0
37 -6 45 -19z"/>
</g>
</svg>
